# xmcd
#
# Track frame offsets:
#	150
#	13545
#	27119
#	39958
#	52947
#	66320
#	79348
#	92244
#	104264
#	117259
#	130212
#	141392
#	155114
#	168320
#	181553
#	200351
#	219511
#	233437
#	246274
#	259817
#	273191
#	288878
#
# Disc length: 4057 seconds
#
# Revision: 1
# Processed by: cddbd v1.5.2PL0 Copyright (c) Steve Scherf et al.
# Submitted via: audiograbber 1.83.01
#
DISCID=2d0fd716
DTITLE=Eddie Condon And His All Stars - Existentialism-Revival Jazz Of The 60's
DTITLE=CD7 (1960)
DYEAR=1960
DGENRE=Jazz
TTITLE0=Ballin' the Jack
TTITLE1=I Ain't Gonna Give Nobody None Of My Jelly Roll
TTITLE2=Sensation
TTITLE3=Fidgety Feet
TTITLE4=Jack Hits the Road
TTITLE5=Forty-Seven and State
TTITLE6=Muskrat Ramble
TTITLE7=That Da-Da Strain
TTITLE8=Shim-me-sha-wabble
TTITLE9=At the Jazz Band Ball
TTITLE10=Prince of Wails
TTITLE11=After Awhile
TTITLE12=Oh, Sister Ain't That Hot
TTITLE13=Giorgia Grind
TTITLE14=That's A Plenty
TTITLE15=Panama
TTITLE16=Original Dixieland One Step
TTITLE17=Baby Won't You Please Come Home
TTITLE18=Nobody Knows You When You're Down And Out
TTITLE19=Rose Room
TTITLE20=I Must HaveThat Man
TTITLE21=When Your Lover Has Gone
EXTD=YEAR: 1960
EXTT0=
EXTT1=
EXTT2=
EXTT3=
EXTT4=
EXTT5=
EXTT6=
EXTT7=
EXTT8=
EXTT9=
EXTT10=
EXTT11=
EXTT12=
EXTT13=
EXTT14=
EXTT15=
EXTT16=
EXTT17=
EXTT18=
EXTT19=
EXTT20=
EXTT21=
PLAYORDER=
